<?xml version="1.0" encoding="UTF-8" standalone="no"?>
<!DOCTYPE svg PUBLIC "-//W3C//DTD SVG 1.1//EN" "http://www.w3.org/Graphics/SVG/1.1/DTD/svg11.dtd">
<svg width="100%" height="100%" viewBox="0 0 1092 158" version="1.1" xmlns="http://www.w3.org/2000/svg" xmlns:xlink="http://www.w3.org/1999/xlink" xml:space="preserve" xmlns:serif="http://www.serif.com/" style="fill-rule:evenodd;clip-rule:evenodd;stroke-linecap:round;stroke-linejoin:round;stroke-miterlimit:1.5;">
    <g transform="matrix(1,0,0,1,-25,-1000)">
        <g transform="matrix(0.646283,0,0,1,-48.2002,75.435)">
            <path d="M121,1000L1789,1000" style="fill:none;stroke:rgb(79,202,255);stroke-width:11.88px;"/>
        </g>
        <g transform="matrix(1.078,0,0,0.980392,-33.602,247.096)">
            <path d="M59,816L59,867" style="fill:none;stroke:rgb(79,202,255);stroke-width:9.71px;"/>
        </g>
        <g transform="matrix(1.078,0,0,0.980392,447.629,249.982)">
            <path d="M59,816L59,867" style="fill:none;stroke:rgb(79,202,255);stroke-width:9.71px;"/>
        </g>
        <g transform="matrix(1.078,0,0,0.491853,236.415,649.083)">
            <path d="M59,816L59,867" style="fill:none;stroke:rgb(79,202,255);stroke-width:11.94px;"/>
        </g>
        <g transform="matrix(1.078,0,0,0.479657,235.981,684.12)">
            <path d="M59,816L59,867" style="fill:none;stroke:rgb(79,202,255);stroke-width:11.99px;"/>
        </g>
        <g transform="matrix(1.078,0,0,0.490196,825.394,650.435)">
            <path d="M59,816L59,867" style="fill:none;stroke:rgb(79,202,255);stroke-width:11.94px;"/>
        </g>
        <g transform="matrix(1.078,0,0,0.490196,825.678,674.982)">
            <path d="M59,816L59,867" style="fill:none;stroke:rgb(79,202,255);stroke-width:11.94px;"/>
        </g>
        <g transform="matrix(1.078,0,0,0.48351,1045.4,656.231)">
            <path d="M59,816L59,867" style="fill:none;stroke:rgb(79,202,255);stroke-width:11.97px;"/>
        </g>
        <g transform="matrix(1.078,0,0,0.501657,1045.4,666.167)">
            <path d="M59,816L59,867" style="fill:none;stroke:rgb(79,202,255);stroke-width:11.89px;"/>
        </g>
        <g transform="matrix(1.078,0,0,0.942899,-13.8372,142.786)">
            <text x="38px" y="945px" style="font-family:'RobotoMono-Thin', 'Roboto Mono', monospace;font-size:47.466px;">-40</text>
        </g>
        <g transform="matrix(1.078,0,0,0.942899,-13.8372,260.942)">
            <text x="38px" y="945px" style="font-family:'RobotoMono-Thin', 'Roboto Mono', monospace;font-size:47.466px;">-40</text>
        </g>
        <g transform="matrix(1.078,0,0,0.885466,226.14,311.501)">
            <text x="38px" y="945px" style="font-family:'RobotoMono-Thin', 'Roboto Mono', monospace;font-size:47.466px;">-0</text>
        </g>
        <g transform="matrix(1.078,0,0,0.939788,440.134,262.452)">
            <text x="38px" y="945px" style="font-family:'RobotoMono-Thin', 'Roboto Mono', monospace;font-size:47.466px;">32</text>
        </g>
        <g transform="matrix(1.078,0,0,0.942899,818.148,259.808)">
            <text x="38px" y="945px" style="font-family:'RobotoMono-Thin', 'Roboto Mono', monospace;font-size:47.466px;">90</text>
        </g>
        <g transform="matrix(1.078,0,0,0.942899,967.596,259.786)">
            <text x="38px" y="945px" style="font-family:'RobotoMono-Thin', 'Roboto Mono', monospace;font-size:47.466px;">122</text>
        </g>
        <g transform="matrix(1.078,0,0,0.885466,202.63,193.939)">
            <text x="38px" y="945px" style="font-family:'RobotoMono-Thin', 'Roboto Mono', monospace;font-size:47.466px;">-18</text>
        </g>
        <g transform="matrix(1.078,0,0,0.939788,455.226,144.071)">
            <text x="38px" y="945px" style="font-family:'RobotoMono-Thin', 'Roboto Mono', monospace;font-size:47.466px;">0</text>
        </g>
        <g transform="matrix(1.078,0,0,0.942899,816.9,143.942)">
            <text x="38px" y="945px" style="font-family:'RobotoMono-Thin', 'Roboto Mono', monospace;font-size:47.466px;">32</text>
        </g>
        <g transform="matrix(1.078,0,0,0.942899,992.217,143.942)">
            <text x="38px" y="945px" style="font-family:'RobotoMono-Thin', 'Roboto Mono', monospace;font-size:47.466px;">50</text>
        </g>
        <g transform="matrix(1.078,0,0,1,71.5775,166.825)">
            <text x="46px" y="867px" style="font-family:'RobotoMono-Thin', 'Roboto Mono', monospace;font-size:16.753px;">C</text>
        </g>
        <g transform="matrix(1.078,0,0,1,73.243,283.825)">
            <text x="46px" y="867px" style="font-family:'RobotoMono-Thin', 'Roboto Mono', monospace;font-size:16.753px;">F</text>
        </g>
        <g transform="matrix(1.078,0,0,0.939089,281.645,334.076)">
            <text x="46px" y="867px" style="font-family:'RobotoMono-Thin', 'Roboto Mono', monospace;font-size:16.753px;">F</text>
        </g>
        <g transform="matrix(1.078,0,0,0.996701,496.378,286.412)">
            <text x="46px" y="867px" style="font-family:'RobotoMono-Thin', 'Roboto Mono', monospace;font-size:16.753px;">F</text>
        </g>
        <g transform="matrix(1.078,0,0,1,874.244,284.306)">
            <text x="46px" y="867px" style="font-family:'RobotoMono-Thin', 'Roboto Mono', monospace;font-size:16.753px;">F</text>
        </g>
        <g transform="matrix(1.078,0,0,1,1053.22,283.825)">
            <text x="46px" y="867px" style="font-family:'RobotoMono-Thin', 'Roboto Mono', monospace;font-size:16.753px;">F</text>
        </g>
        <g transform="matrix(1.078,0,0,0.939089,288.859,217.489)">
            <text x="46px" y="867px" style="font-family:'RobotoMono-Thin', 'Roboto Mono', monospace;font-size:16.753px;">C</text>
        </g>
        <g transform="matrix(1.078,0,0,0.996701,480.063,166.658)">
            <text x="46px" y="867px" style="font-family:'RobotoMono-Thin', 'Roboto Mono', monospace;font-size:16.753px;">C</text>
        </g>
        <g transform="matrix(1.078,0,0,1,873.143,167.403)">
            <text x="46px" y="867px" style="font-family:'RobotoMono-Thin', 'Roboto Mono', monospace;font-size:16.753px;">C</text>
        </g>
        <g transform="matrix(1.078,0,0,1,1047.3,168.331)">
            <text x="46px" y="867px" style="font-family:'RobotoMono-Thin', 'Roboto Mono', monospace;font-size:16.753px;">C</text>
        </g>
        <g transform="matrix(1.078,0,0,1,64.8177,163.602)">
            <text x="46px" y="867px" style="font-family:'RobotoMono-Thin', 'Roboto Mono', monospace;font-size:16.753px;">º</text>
        </g>
        <g transform="matrix(1.078,0,0,1,64.6436,281.367)">
            <text x="46px" y="867px" style="font-family:'RobotoMono-Thin', 'Roboto Mono', monospace;font-size:16.753px;">º</text>
        </g>
        <g transform="matrix(1.078,0,0,0.939089,274.045,330.474)">
            <text x="46px" y="867px" style="font-family:'RobotoMono-Thin', 'Roboto Mono', monospace;font-size:16.753px;">º</text>
        </g>
        <g transform="matrix(1.078,0,0,0.996701,487.778,283.962)">
            <text x="46px" y="867px" style="font-family:'RobotoMono-Thin', 'Roboto Mono', monospace;font-size:16.753px;">º</text>
        </g>
        <g transform="matrix(1.078,0,0,1,866.102,283.847)">
            <text x="46px" y="867px" style="font-family:'RobotoMono-Thin', 'Roboto Mono', monospace;font-size:16.753px;">º</text>
        </g>
        <g transform="matrix(1.078,0,0,1,1045.62,281.367)">
            <text x="46px" y="867px" style="font-family:'RobotoMono-Thin', 'Roboto Mono', monospace;font-size:16.753px;">º</text>
        </g>
        <g transform="matrix(1.078,0,0,0.939089,281.099,214.462)">
            <text x="46px" y="867px" style="font-family:'RobotoMono-Thin', 'Roboto Mono', monospace;font-size:16.753px;">º</text>
        </g>
        <g transform="matrix(1.078,0,0,0.996701,472.464,164.208)">
            <text x="46px" y="867px" style="font-family:'RobotoMono-Thin', 'Roboto Mono', monospace;font-size:16.753px;">º</text>
        </g>
        <g transform="matrix(1.078,0,0,1,864.543,165.945)">
            <text x="46px" y="867px" style="font-family:'RobotoMono-Thin', 'Roboto Mono', monospace;font-size:16.753px;">º</text>
        </g>
        <g transform="matrix(1.078,0,0,1,1039.7,165.873)">
            <text x="46px" y="867px" style="font-family:'RobotoMono-Thin', 'Roboto Mono', monospace;font-size:16.753px;">º</text>
        </g>
    </g>
</svg>
